<?xml version="1.0" encoding="UTF-8" standalone="no"?>
<!DOCTYPE svg PUBLIC "-//W3C//DTD SVG 1.1//EN" "http://www.w3.org/Graphics/SVG/1.1/DTD/svg11.dtd">
<svg version="1.1" xmlns="http://www.w3.org/2000/svg" xmlns:xlink="http://www.w3.org/1999/xlink" preserveAspectRatio="xMidYMid meet" viewBox="0 0 640 640" width="640" height="640"><defs><path d="M257.3 315.21L257.19 315.3L257.19 315.05L201.52 357.21L201.52 516.2L379.09 516.2L379.09 460.54L257.19 460.54L257.19 369.02L257.3 315.21Z" id="a1uVIgFGzE"></path><path d="M470.86 58.1L519.94 28.01L561.66 2.64L561.33 2.64L561.66 2.43L201.52 2.43L201.52 161.42L257.19 203.58L257.19 58.1L470.86 58.1Z" id="aOxv9SmLS"></path><path d="M618.85 0.23L618.85 0L612.39 3.97L524.09 58.1C457.05 99.22 419.81 122.06 412.36 126.63C408.98 128.71 406.92 132.39 406.92 136.36C406.92 157.97 406.92 266.03 406.92 460.54L406.92 516.2C406.92 583.62 406.92 621.08 406.92 628.57C406.92 637.49 416.7 642.96 424.3 638.3C442.91 626.88 591.84 535.55 610.45 524.13C615.67 520.93 618.85 515.26 618.85 509.13C618.85 486.81 618.85 375.17 618.85 174.23L618.96 0.17L618.85 0.23ZM445.46 309.35C445.46 305.45 447.07 301.9 449.64 299.4C452.14 296.82 455.69 295.22 459.59 295.22C467.38 295.22 473.72 301.55 473.72 309.35C473.72 312.58 473.72 338.4 473.72 341.63C473.72 349.42 467.38 355.75 459.59 355.75C451.8 355.75 445.46 349.42 445.46 341.63C445.46 335.17 445.46 312.58 445.46 309.35Z" id="h9ZFjsNhl"></path><path d="M276.18 265.79C280.43 262.52 280.43 256.12 276.18 252.85C274.91 251.89 268.58 247.09 257.19 238.44L201.52 196.28C179.52 179.62 167.3 170.37 164.86 168.52C163.33 167.41 161.66 166.92 159.99 166.92C155.81 166.92 151.85 170.19 151.85 174.99C151.85 178.59 151.85 207.37 151.85 210.97C151.85 215.42 148.23 219.1 143.78 219.1C132.32 219.1 40.64 219.1 29.18 219.1C24.65 219.1 21.04 222.72 21.04 227.18C21.04 233.61 21.04 285.04 21.04 291.46C21.04 295.92 24.65 299.61 29.18 299.61C40.64 299.61 132.31 299.61 143.77 299.61C148.23 299.61 151.85 303.23 151.85 307.68C151.85 311.28 151.85 340.06 151.85 343.65C151.85 348.45 155.81 351.79 159.99 351.79C161.66 351.79 163.32 351.24 164.86 350.12C167.3 348.27 179.52 339.02 201.52 322.36L257.19 280.19C268.58 271.55 274.91 266.75 276.18 265.79Z" id="bmm1LOkic"></path></defs><g><g><g><use xlink:href="#a1uVIgFGzE" opacity="1" fill="#ffffff" fill-opacity="1"></use><g><use xlink:href="#a1uVIgFGzE" opacity="1" fill-opacity="0" stroke="#000000" stroke-width="1" stroke-opacity="0"></use></g></g><g><use xlink:href="#aOxv9SmLS" opacity="1" fill="#ffffff" fill-opacity="1"></use><g><use xlink:href="#aOxv9SmLS" opacity="1" fill-opacity="0" stroke="#000000" stroke-width="1" stroke-opacity="0"></use></g></g><g><use xlink:href="#h9ZFjsNhl" opacity="1" fill="#fbfbfb" fill-opacity="1"></use><g><use xlink:href="#h9ZFjsNhl" opacity="1" fill-opacity="0" stroke="#000000" stroke-width="1" stroke-opacity="0"></use></g></g><g><use xlink:href="#bmm1LOkic" opacity="1" fill="#ffffff" fill-opacity="1"></use><g><use xlink:href="#bmm1LOkic" opacity="1" fill-opacity="0" stroke="#000000" stroke-width="1" stroke-opacity="0"></use></g></g></g></g></svg>