<?xml version="1.0" encoding="UTF-8" standalone="no"?>
<!DOCTYPE svg PUBLIC "-//W3C//DTD SVG 1.1//EN" "http://www.w3.org/Graphics/SVG/1.1/DTD/svg11.dtd">
<svg version="1.1" xmlns="http://www.w3.org/2000/svg" xmlns:xlink="http://www.w3.org/1999/xlink" preserveAspectRatio="xMidYMid meet" viewBox="0 0 640 640" width="640" height="640"><defs><path d="M191.23 524.93C191.23 556.73 217.01 582.5 248.81 582.5C280.6 582.5 306.38 556.72 306.38 524.93C306.34 493.14 280.58 467.39 248.8 467.36C217 467.36 191.23 493.13 191.23 524.93ZM417.82 524.93C417.82 556.73 443.6 582.5 475.4 582.5C507.19 582.5 532.97 556.72 532.97 524.93C532.93 493.14 507.18 467.39 475.4 467.35C443.6 467.36 417.82 493.13 417.82 524.93ZM176.96 159.6C171.86 129.56 169.03 112.88 168.46 109.54C163.42 79.45 137.35 57.43 106.84 57.5C103.27 57.5 74.66 57.5 71.09 57.5C64.18 57.5 58.59 63.1 58.59 70C58.59 76.9 64.18 82.5 71.09 82.5C74.66 82.5 103.27 82.5 106.84 82.5C125.15 82.46 140.79 95.67 143.81 113.72C148.34 140.39 184.55 353.7 189.08 380.37C194.12 410.46 220.19 432.48 250.7 432.41C277.35 432.41 490.52 432.41 517.16 432.41C524.06 432.41 529.66 426.81 529.66 419.91C529.66 413 524.06 407.41 517.16 407.41C490.51 407.41 277.34 407.41 250.7 407.41C232.39 407.45 216.75 394.24 213.73 376.18C213.42 374.4 211.91 365.46 209.18 349.38C365.94 349.38 453.03 349.38 470.45 349.38C503.07 349.45 531.97 328.37 541.87 297.29C545.76 285.16 576.92 188.06 580.82 175.92C582.93 169.34 579.31 162.31 572.73 160.2C571.5 159.8 570.21 159.6 568.92 159.6C516.65 159.6 386 159.6 176.96 159.6Z" id="a6jnvBp2A"></path></defs><g><g><g><use xlink:href="#a6jnvBp2A" opacity="1" fill="#fefefe" fill-opacity="1"></use><g><use xlink:href="#a6jnvBp2A" opacity="1" fill-opacity="0" stroke="#000000" stroke-width="1" stroke-opacity="0"></use></g></g></g></g></svg>